<?xml version="1.0" encoding="UTF-8"?>
<svg version="1.1" xmlns="http://www.w3.org/2000/svg" width="512" height="512">
<path d="M0 0 C79.2 0 158.4 0 240 0 C240 21.12 240 42.24 240 64 C261.78 64 283.56 64 306 64 C306.66 62.02 307.32 60.04 308 58 C312.8826007 52.33618318 317.97522434 48.48753692 325.49609375 47.7578125 C332.0944991 47.4466533 337.46474448 48.2577086 343 52 C348.11693283 56.68644517 351.61166479 61.22050501 352.3359375 68.26953125 C352.42729509 76.55566509 352.11858264 82.44349212 346.45703125 88.70703125 C341.3145403 93.54356164 335.68033422 96.05243774 328.625 96.4375 C322.32383595 96.1658981 316.60482288 94.30699376 311.84765625 90.09375 C308.72000695 86.66548819 307.14663648 84.58654593 306 80 C284.22 80 262.44 80 240 80 C240 95.84 240 111.68 240 128 C258.48 128 276.96 128 296 128 C296 138.56 296 149.12 296 160 C307.22 160 318.44 160 330 160 C330.66 158.35 331.32 156.7 332 155 C335.86913906 148.71264902 340.938344 145.81095579 348 144 C354.83789077 142.87005894 361.06986354 144.48693236 367 148 C372.18187059 152.57954984 375.61678389 157.27032691 376.3359375 164.26953125 C376.4299791 172.79910456 376.08815625 178.624803 370.1640625 184.96484375 C363.8676883 190.8631713 358.37980301 192.51402504 349.80859375 192.3046875 C342.02335138 191.46011322 337.26323201 187.86753424 332.3125 182 C331 180 331 180 330 176 C313.5 176 297 176 280 176 C280 165.44 280 154.88 280 144 C266.8 144 253.6 144 240 144 C240 175.68 240 207.36 240 240 C192.48 240 144.96 240 96 240 C96 255.84 96 271.68 96 288 C74.22 288 52.44 288 30 288 C29.67 289.65 29.34 291.3 29 293 C25.27752294 298.76383545 20.53857229 301.9179343 14 304 C7.30136923 304.92367211 0.71829983 304.93690096 -5.21875 301.40234375 C-11.05548783 296.80719269 -15.43472798 291.54002687 -16.37109375 284.01953125 C-16.53180623 276.25806388 -15.73303089 270.3221403 -11 264 C-5.68801426 258.65467544 -0.12874977 256.38229165 7.375 255.6875 C15.17743825 256.36012399 20.47227975 258.87597579 26.37109375 263.98828125 C28 266 28 266 30 272 C46.5 272 63 272 80 272 C80 261.44 80 250.88 80 240 C53.6 240 27.2 240 0 240 C0 203.04 0 166.08 0 128 C-25.74 128 -51.48 128 -78 128 C-78.66 129.98 -79.32 131.96 -80 134 C-84.89491217 139.67809812 -89.95754978 143.43172386 -97.4609375 144.27734375 C-104.69312851 144.69263763 -110.05537675 143.15394865 -116 139 C-120.77681801 134.65833726 -123.66507203 130.2597059 -124.3359375 123.73046875 C-124.42704516 115.46700417 -124.15547037 109.49490235 -118.421875 103.29296875 C-112.29302149 97.61963814 -106.10365304 95.3748749 -97.7734375 95.66015625 C-90.0071455 96.61180048 -85.27211967 100.12193224 -80.3125 106 C-79 108 -79 108 -78 112 C-52.26 112 -26.52 112 0 112 C0 101.11 0 90.22 0 79 C5.28 79 10.56 79 16 79 C16 126.85 16 174.7 16 224 C84.64 224 153.28 224 224 224 C224 155.36 224 86.72 224 16 C155.36 16 86.72 16 16 16 C16 31.84 16 47.68 16 64 C10.72 64 5.44 64 0 64 C0 42.88 0 21.76 0 0 Z M321 68 C319.83789781 70.39351495 319.83789781 70.39351495 320 73 C321.62155629 76.48634601 322.76453292 77.84302194 326 80 C330.89757389 79.82666872 330.89757389 79.82666872 334.9375 77.3125 C336.3613395 74.2135552 336.55153827 72.37817188 336 69 C333.70853575 65.98836127 332.23996182 64.27899141 328.5 63.4375 C325.10017193 64.20246132 323.42085748 65.51189648 321 68 Z M-108 117 C-108.83333333 120 -108.83333333 120 -108 123 C-106.08333333 126.08333333 -106.08333333 126.08333333 -103 128 C-99.42813335 128 -97.11888401 127.74592267 -94.125 125.75 C-92.61536655 123.4016813 -92.13336945 121.80075852 -92 119 C-93.62155629 115.51365399 -94.76453292 114.15697806 -98 112 C-102.99341956 111.08015955 -105.03910238 113.10853455 -108 117 Z M345 164 C344.27692887 166.8228697 344.28953972 169.17548716 345 172 C346.91182268 174.74612994 346.91182268 174.74612994 350 176 C353.49305789 175.93977486 355.90366489 175.63658168 358.9375 173.875 C360.69937187 170.76581435 360.48159369 168.49155423 360 165 C357.7132584 161.92923271 356.27592854 160.28708392 352.5 159.4375 C348.97333979 160.23099855 347.38945749 161.26919144 345 164 Z M1.25 275.5078125 C-0.25693182 277.07699245 -0.25693182 277.07699245 -0.6875 280 C0.23919372 284.04375441 1.68330721 285.54853142 5 288 C8.04308291 288.75015195 8.04308291 288.75015195 11 288 C13.65359262 286.06359458 14.7609947 284.62141377 15.9375 281.5625 C16.02066111 278.1528946 15.08657139 276.66217729 13 274 C8.28026479 270.90267377 5.42208167 271.81552022 1.25 275.5078125 Z " fill="#000000" transform="translate(136,136)"/>
<path d="M0 0 C1.38955241 -0.05758578 1.38955241 -0.05758578 2.80717659 -0.11633492 C24.90083615 -0.8546584 47.13348612 1.08365071 69.12890625 2.21484375 C69.12890625 60.29484375 69.12890625 118.37484375 69.12890625 178.21484375 C50.64890625 178.21484375 32.16890625 178.21484375 13.12890625 178.21484375 C13.12890625 172.93484375 13.12890625 167.65484375 13.12890625 162.21484375 C26.32890625 162.21484375 39.52890625 162.21484375 53.12890625 162.21484375 C53.12890625 114.69484375 53.12890625 67.17484375 53.12890625 18.21484375 C-9.47508075 13.22243664 -9.47508075 13.22243664 -33.18359375 29.90234375 C-43.90021377 44.20436175 -45.48763896 60.01082563 -43.39468384 77.47871399 C-42.79924333 80.85939067 -42.09396755 82.96421248 -39.79907227 85.54492188 C-37.45912358 87.17655197 -37.45912358 87.17655197 -35.00097656 88.23339844 C-30.85394122 90.1443432 -29.42130623 94.00437629 -27.62109375 97.96484375 C-25.9048847 105.40174964 -26.22877342 112.42754803 -29.87109375 119.21484375 C-33.9223459 125.06665241 -38.79926477 128.81097417 -45.87109375 130.21484375 C-53.9038123 131.11307106 -60.26201107 130.02986721 -66.87109375 125.21484375 C-71.97309213 119.9755245 -75.15138523 114.32104007 -75.18359375 106.90234375 C-75.00786833 98.73111194 -72.71895651 93.06270651 -66.87109375 87.21484375 C-65.64907171 86.65644729 -64.41697407 86.11965754 -63.17651367 85.60351562 C-61.28636935 84.64163056 -61.28636935 84.64163056 -59.87109375 83.21484375 C-59.19872679 80.16141054 -59.76896163 77.30871268 -60.234375 74.24609375 C-62.21679169 54.5509841 -61.6291195 35.73585235 -48.63961792 19.75964355 C-34.74899826 4.02491279 -20.16180506 0.83421037 0 0 Z M-56.87109375 100.21484375 C-59.21659049 103.73308886 -59.45100778 105.07260069 -58.87109375 109.21484375 C-56.95442708 112.29817708 -56.95442708 112.29817708 -53.87109375 114.21484375 C-50.32513817 114.21484375 -48.00933234 113.93572819 -44.99609375 112.02734375 C-43.37815332 109.42066195 -43.05766797 107.26222272 -42.87109375 104.21484375 C-43.69872701 101.50622579 -44.39223186 100.53408501 -46.74609375 98.96484375 C-50.66005538 97.58344553 -53.47591475 98.06456372 -56.87109375 100.21484375 Z " fill="#000000" transform="translate(274.87109375,165.78515625)"/>
<path d="M0 0 C18.48 0 36.96 0 56 0 C56 5.28 56 10.56 56 16 C42.8 16 29.6 16 16 16 C16 63.52 16 111.04 16 160 C78.603987 164.99240711 78.603987 164.99240711 102.3125 148.3125 C113.02912002 134.010482 114.61654521 118.20401812 112.52359009 100.73612976 C111.92814958 97.35545308 111.2228738 95.25063127 108.92797852 92.66992188 C106.58802983 91.03829178 106.58802983 91.03829178 104.12988281 89.98144531 C99.98284747 88.07050055 98.55021248 84.21046746 96.75 80.25 C95.03379095 72.81309411 95.35767967 65.78729572 99 59 C103.05125215 53.14819134 107.92817102 49.40386958 115 48 C123.03271855 47.10177269 129.39091732 48.18497654 136 53 C141.10199838 58.23931925 144.28029148 63.89380368 144.3125 71.3125 C144.13677458 79.48373181 141.84786276 85.15213724 136 91 C134.77797796 91.55839646 133.54588032 92.09518621 132.30541992 92.61132812 C130.4152756 93.57321319 130.4152756 93.57321319 129 95 C128.32763304 98.05343321 128.89786788 100.90613107 129.36328125 103.96875 C131.34569794 123.66385965 130.75802575 142.4789914 117.76852417 158.4552002 C105.64073818 172.19306444 93.10732447 176.80307678 75.2403717 177.93675232 C73.20360793 178.03768388 71.166426 178.13053979 69.12890625 178.21484375 C67.73935384 178.27242953 67.73935384 178.27242953 66.32172966 178.33117867 C44.2280701 179.06950215 21.99542013 177.13119304 0 176 C0 117.92 0 59.84 0 0 Z M113 68 C111.83551119 70.90351124 111.83551119 70.90351124 112 74 C113.94326159 77.49787086 115.1640285 78.73875891 119 79.9375 C122.13158696 80.0027414 123.47806604 79.8013814 126 78 C128.34549674 74.48175489 128.57991403 73.14224306 128 69 C125.51397551 65.63655511 124.08574477 64.19942251 119.9375 63.4375 C116.28744421 64.13644685 115.14435389 64.98202045 113 68 Z " fill="#000000" transform="translate(168,168)"/>
<path d="M0 0 C5.67429422 3.40934485 10.05052626 8.11038422 12.5 14.3125 C14.24686047 21.37124232 13.56192087 27.72439589 10.5 34.3125 C7.61959186 38.70326542 4.29788343 42.04683283 -0.5 44.3125 C-1.16 44.3125 -1.82 44.3125 -2.5 44.3125 C-2.5 60.8125 -2.5 77.3125 -2.5 94.3125 C26.54 94.3125 55.58 94.3125 85.5 94.3125 C85.5 99.5925 85.5 104.8725 85.5 110.3125 C51.18 110.3125 16.86 110.3125 -18.5 110.3125 C-18.5 88.5325 -18.5 66.7525 -18.5 44.3125 C-20.15 43.9825 -21.8 43.6525 -23.5 43.3125 C-28.8787081 40.0808022 -32.87458024 35.39099283 -34.5 29.3125 C-35.28941541 22.34611246 -35.633182 15.23240082 -31.90234375 9.05859375 C-24.03447536 -0.73788862 -12.14634282 -5.7145651 0 0 Z M-16.9375 15.875 C-19.10396028 19.25467804 -19.06288002 21.37233987 -18.5 25.3125 C-16.57017583 28.02854883 -15.15799225 29.05942606 -12.0625 30.25 C-8.5871831 30.33476383 -7.15534002 29.53724434 -4.5 27.3125 C-2.841404 24.50353937 -2.841404 24.50353937 -2.5 21.3125 C-3.83126447 18.38371816 -5.23304965 16.57945035 -7.5 14.3125 C-11.35506762 13.88415915 -13.62800365 13.75352798 -16.9375 15.875 Z " fill="#000000" transform="translate(34.5,73.6875)"/>
<path d="M0 0 C26.4 0 52.8 0 80 0 C80 5.28 80 10.56 80 16 C58.88 16 37.76 16 16 16 C16 37.78 16 59.56 16 82 C17.65 82.66 19.3 83.32 21 84 C26.84966146 88.05894877 29.92800645 92.44769861 31.5703125 99.421875 C32.67965362 107.02204184 30.78864342 112.55520526 27.3125 119.25 C23.69886847 123.54729154 19.3109348 126.2296884 14 128 C6.33675963 128.63947697 -0.74223391 128.92661848 -7 124 C-12.04384364 119.20634702 -15.55910925 114.84271092 -16.37109375 107.765625 C-16.51788927 99.99409766 -16.18294225 94.06329847 -11 88 C-4.58835759 82 -4.58835759 82 0 82 C0 54.94 0 27.88 0 0 Z M1 99 C-0.54586876 102.09173752 -0.29359521 104.59429552 0 108 C1.41666667 110.58333333 1.41666667 110.58333333 4 112 C8.02059163 112.57437023 10.06368326 112.6899176 13.375 110.25 C15.48227448 107.38961935 15.48227448 107.38961935 16 104 C14.77077008 100.76518442 13.88677955 98.60966094 11 96.625 C6.70621266 95.28319146 4.54694095 96.57314567 1 99 Z " fill="#000000" transform="translate(40,296)"/>
<path d="M0 0 C18.48 0 36.96 0 56 0 C56 16.5 56 33 56 50 C57.65 50.33 59.3 50.66 61 51 C66.76383545 54.72247706 69.9179343 59.46142771 72 66 C72.92367211 72.69863077 72.93690096 79.28170017 69.40234375 85.21875 C64.80719269 91.05548783 59.54002687 95.43472798 52.01953125 96.37109375 C44.25806388 96.53180623 38.3221403 95.73303089 32 91 C26.65467544 85.68801426 24.38229165 80.12874977 23.6875 72.625 C24.38215813 64.56696573 27.03850796 58.52711196 33 53 C37.25806452 50 37.25806452 50 40 50 C40 38.78 40 27.56 40 16 C26.8 16 13.6 16 0 16 C0 10.72 0 5.44 0 0 Z M42 67 C40.25306008 69.38219081 39.97723727 70.54474533 40.125 73.5 C41.23692188 76.67691965 42.24689163 78.04384405 45 80 C48.94016013 80.56288002 51.05782196 80.60396028 54.4375 78.4375 C56.60396028 75.05782196 56.56288002 72.94016013 56 69 C54.07017583 66.28395117 52.65799225 65.25307394 49.5625 64.0625 C46.1528946 63.97933889 44.66217729 64.91342861 42 67 Z " fill="#000000" transform="translate(392,344)"/>
<path d="M0 0 C5.89028491 3.50671623 10.55855237 8.96109999 12.625 15.5 C13.69493844 24.09329509 12.89545883 31.45999099 7.625 38.5 C2.31301426 43.84532456 -3.24625023 46.11770835 -10.75 46.8125 C-18.80803427 46.11784187 -24.84788804 43.46149204 -30.375 37.5 C-33.375 33.24193548 -33.375 33.24193548 -33.375 30.5 C-49.875 30.5 -66.375 30.5 -83.375 30.5 C-83.375 35.78 -83.375 41.06 -83.375 46.5 C-88.655 46.5 -93.935 46.5 -99.375 46.5 C-99.375 35.94 -99.375 25.38 -99.375 14.5 C-77.595 14.5 -55.815 14.5 -33.375 14.5 C-33.045 12.85 -32.715 11.2 -32.375 9.5 C-25.48316814 -1.17122353 -11.75767989 -5.0813229 0 0 Z M-16.75 16.1875 C-18.59421807 18.81196417 -19.29669023 20.28929947 -19.375 23.5 C-18.115247 26.35101994 -17.01617799 28.0298028 -14.5 29.875 C-11.67658614 30.70541584 -10.15113862 30.47164852 -7.375 29.5 C-4.40444298 27.33229623 -3.49637115 26.21305549 -2.875 22.5625 C-3.50743896 18.68881135 -4.41364454 17.08169451 -7.375 14.5 C-11.38245494 13.85594474 -13.40759292 13.81263181 -16.75 16.1875 Z " fill="#000000" transform="translate(427.375,73.5)"/>
<path d="M0 0 C5.61 0 11.22 0 17 0 C17 5.28 17 10.56 17 16 C11.39 16 5.78 16 0 16 C0 10.72 0 5.44 0 0 Z " fill="#000000" transform="translate(304,304)"/>
<path d="M0 0 C5.61 0 11.22 0 17 0 C17 5.28 17 10.56 17 16 C11.39 16 5.78 16 0 16 C0 10.72 0 5.44 0 0 Z " fill="#000000" transform="translate(191,304)"/>
<path d="M0 0 C5.61 0 11.22 0 17 0 C17 5.28 17 10.56 17 16 C11.39 16 5.78 16 0 16 C0 10.72 0 5.44 0 0 Z " fill="#000000" transform="translate(304,192)"/>
<path d="M0 0 C5.61 0 11.22 0 17 0 C17 5.28 17 10.56 17 16 C11.39 16 5.78 16 0 16 C0 10.72 0 5.44 0 0 Z " fill="#000000" transform="translate(191,192)"/>
</svg>
