<svg xmlns="http://www.w3.org/2000/svg" viewBox="0 0 800 900">
  <g transform="translate(220, 50)">
    <path d="m0 0h132l60 1 33 3 35 6 25 6 27 9 24 11 20 12 16 12 12 11 10 10 10 13 12 19 9 19 7 19 6 24 2 13 2 4 9 7 7 10 4 10 1 11-3 12-6 10-4 5-11 6-4 19-6 18-8 17-10 16-11 14-9 10-7 7-7 5-1 3 6 2 21 11 18 12 14 11 13 12 11 12 11 15 9 16 7 16 7 21 6 26v13l5 2 6 5 7 10 4 10v17l-4 10-7 9-10 6-2 1-5 23-7 21-8 18-10 17-10 14-11 12-15 15-19 14-24 14-21 10-36 12-25 6-28 5-23 3-25 2-25 1h-366l-6-4-4-6-1-9v-759l2-9 6-7 2-1zm-138 31-1 4v184l7-6 7-7v-2h2l7-8 70-70 5-6 7-6h198l22 3 19 5 15 6 15 8 12 9 11 11 7 10 8 16 6 18 3 20v21l-4 22-5 16-8 16-9 13-7 8-13 10-19 10-19 6-20 4-10 1h-21l-5-3-4-6-1-6 3-8 5-4 3-1 25-2 20-4 15-6 12-7 12-11 6-8 8-15 4-14 2-12v-19l-3-17-6-15-7-11-9-10-10-7-15-8-15-5-14-3-7-1-22-1h-27l-139 1-7 8-17 17-7 8-43 43v2h-2l-7 8-22 22-8 7-1 3h-2l-1 2-1 124 4-2 75-75 7-8 50-50 127-1 11-12 8-5 10-3h9l13 4 9 7 6 9 3 11-1 12-4 9-6 8-10 6-6 2-11 1-10-2-8-4-7-6-6-7h-102l-11 1-85 85-7 8-40 40-7 8-8 7-3 5 1 120 5-3 17-17 7-8 92-92 3-2h218l18 2 23 5 19 7 14 7 17 12 13 13 10 16 8 18 5 20 1 8v31l-3 18-5 17-8 16-8 12-9 10-13 10-14 8-16 7-17 5-22 4-10 1-22 1h-181l-6-4-4-5-1-3v-198h-3l-48 48-5 6-58 58-7 8-6 5-4 5v162l1 1 126 1h209l27-1 32-3 28-4 33-7 29-9 20-8 17-9 14-9 12-9 10-9 6-5 7-8 10-13 9-16 7-15 6-18 3-17-10-10-5-10-1-4v-16l4-11 9-10 5-4-2-18-6-23-8-20-8-14-7-10-9-11-11-11-13-10-15-10-16-9-19-9-19-7-8-4-3-5-1-8 3-6v-2l4-2 17-10 13-10 12-11 8-9 9-13 8-15 6-16 4-15-1-5-9-9-5-10-2-8v-12l4-10 6-8 8-7v-7l-5-22-6-18-10-21-8-12-8-10-11-12-9-8-14-10-16-10-23-11-24-8-21-5-30-5-29-3-19-1z" fill="#000000"/>
  </g>
</svg>
